# xmcd
#
# Track frame offsets:
#	150
#	889
#	28668
#	52041
#	79088
#	107373
#	125278
#	158704
#	201296
#
# Disc length: 3077 seconds
#
# Revision: 2
# Processed by: cddbd v1.5PL3 Copyright (c) Steve Scherf et al.
# Submitted via: CDmax 2.0
#
DISCID=610c0309
DTITLE=Jorma Kaukonen and Blue Country Heart - The JamGrass Festival - Shelburn
DTITLE=e, VT 07.20.2002
DYEAR=2002
DGENRE=Blues
TTITLE0=Intro music
TTITLE1=Blue Railroad Train
TTITLE2=Waiting For A Train
TTITLE3=Bread Line Blues
TTITLE4=Prohibition Blues
TTITLE5=Embryonic Journey
TTITLE6=Good Shepherd
TTITLE7=Red River Blues > Tom Cat Blues
TTITLE8=Hesitation Blues
EXTD=07-20-02\nShelbourne Museum\nShelbourne, VT\n\nw/The Blue Country Hear
EXTD=t Band: \nCindy Cashdollar - Dobro, Sam Bush - Mandolin\n\nw/JamGrass, f
EXTD=eaturing David Grisman Quintet, Sam Bush Band, \nPeter Rowan, John Cowa
EXTD=n Band\n\nBlue Railroad Train\nWaiting For A Train\nBread Line Blues\nPr
EXTD=ohibition Blues\nEmbryonic Journey\nGood Shepherd\nRed River Blues\nTo
EXTD=m Cat Blues\nHesitation Blues
EXTT0=
EXTT1=
EXTT2=
EXTT3=
EXTT4=
EXTT5=
EXTT6=
EXTT7=
EXTT8=
PLAYORDER=
